<mxfile host="app.diagrams.net" agent="Mozilla/5.0 (Macintosh; Intel Mac OS X 10_15_7) AppleWebKit/537.36 (KHTML, like Gecko) Chrome/130.0.0.0 Safari/537.36" version="24.8.1">
  <diagram name="Page-1" id="cuQs27DWHLJyPnFXkSzK">
    <mxGraphModel dx="954" dy="680" grid="1" gridSize="10" guides="1" tooltips="1" connect="1" arrows="1" fold="1" page="1" pageScale="1" pageWidth="827" pageHeight="1169" math="0" shadow="0">
      <root>
        <mxCell id="0" />
        <mxCell id="1" parent="0" />
        <mxCell id="pHhu0R0TIGrpvitj7r4t-1" value="start" style="ellipse;whiteSpace=wrap;html=1;" parent="1" vertex="1">
          <mxGeometry x="310" y="20" width="120" height="80" as="geometry" />
        </mxCell>
        <mxCell id="pHhu0R0TIGrpvitj7r4t-2" value="" style="endArrow=none;html=1;rounded=0;" parent="1" edge="1">
          <mxGeometry width="50" height="50" relative="1" as="geometry">
            <mxPoint x="370" y="190" as="sourcePoint" />
            <mxPoint x="370" y="100" as="targetPoint" />
          </mxGeometry>
        </mxCell>
        <mxCell id="pHhu0R0TIGrpvitj7r4t-3" value="input number to check" style="shape=parallelogram;perimeter=parallelogramPerimeter;whiteSpace=wrap;html=1;fixedSize=1;" parent="1" vertex="1">
          <mxGeometry x="270" y="190" width="200" height="60" as="geometry" />
        </mxCell>
        <mxCell id="pHhu0R0TIGrpvitj7r4t-4" value="" style="endArrow=none;html=1;rounded=0;" parent="1" edge="1">
          <mxGeometry width="50" height="50" relative="1" as="geometry">
            <mxPoint x="370" y="320" as="sourcePoint" />
            <mxPoint x="370" y="250" as="targetPoint" />
          </mxGeometry>
        </mxCell>
        <mxCell id="pHhu0R0TIGrpvitj7r4t-5" value="if num % 2 == 0" style="rhombus;whiteSpace=wrap;html=1;" parent="1" vertex="1">
          <mxGeometry x="305" y="320" width="130" height="130" as="geometry" />
        </mxCell>
        <mxCell id="pHhu0R0TIGrpvitj7r4t-8" value="" style="edgeStyle=segmentEdgeStyle;endArrow=classic;html=1;curved=0;rounded=0;endSize=8;startSize=8;exitX=0;exitY=0.5;exitDx=0;exitDy=0;" parent="1" source="pHhu0R0TIGrpvitj7r4t-5" edge="1">
          <mxGeometry width="50" height="50" relative="1" as="geometry">
            <mxPoint x="170" y="440" as="sourcePoint" />
            <mxPoint x="220" y="480" as="targetPoint" />
            <Array as="points">
              <mxPoint x="220" y="385" />
            </Array>
          </mxGeometry>
        </mxCell>
        <mxCell id="pHhu0R0TIGrpvitj7r4t-9" value="print( Even Number )" style="shape=parallelogram;perimeter=parallelogramPerimeter;whiteSpace=wrap;html=1;fixedSize=1;" parent="1" vertex="1">
          <mxGeometry x="140" y="480" width="160" height="60" as="geometry" />
        </mxCell>
        <mxCell id="pHhu0R0TIGrpvitj7r4t-10" value="" style="edgeStyle=segmentEdgeStyle;endArrow=classic;html=1;curved=0;rounded=0;endSize=8;startSize=8;exitX=1;exitY=0.5;exitDx=0;exitDy=0;" parent="1" source="pHhu0R0TIGrpvitj7r4t-5" edge="1">
          <mxGeometry width="50" height="50" relative="1" as="geometry">
            <mxPoint x="460" y="390" as="sourcePoint" />
            <mxPoint x="590" y="480" as="targetPoint" />
          </mxGeometry>
        </mxCell>
        <mxCell id="pHhu0R0TIGrpvitj7r4t-11" value="Yes" style="text;html=1;align=center;verticalAlign=middle;resizable=0;points=[];autosize=1;strokeColor=none;fillColor=none;" parent="1" vertex="1">
          <mxGeometry x="230" y="360" width="40" height="30" as="geometry" />
        </mxCell>
        <mxCell id="pHhu0R0TIGrpvitj7r4t-12" value="No" style="text;html=1;align=center;verticalAlign=middle;resizable=0;points=[];autosize=1;strokeColor=none;fillColor=none;" parent="1" vertex="1">
          <mxGeometry x="510" y="358" width="40" height="30" as="geometry" />
        </mxCell>
        <mxCell id="pHhu0R0TIGrpvitj7r4t-13" value="print(odd number)" style="shape=parallelogram;perimeter=parallelogramPerimeter;whiteSpace=wrap;html=1;fixedSize=1;" parent="1" vertex="1">
          <mxGeometry x="500" y="480" width="160" height="60" as="geometry" />
        </mxCell>
        <mxCell id="pHhu0R0TIGrpvitj7r4t-15" value="" style="edgeStyle=elbowEdgeStyle;elbow=horizontal;endArrow=classic;html=1;curved=0;rounded=0;endSize=8;startSize=8;exitX=0.388;exitY=1.033;exitDx=0;exitDy=0;exitPerimeter=0;" parent="1" source="pHhu0R0TIGrpvitj7r4t-9" edge="1">
          <mxGeometry width="50" height="50" relative="1" as="geometry">
            <mxPoint x="240" y="700" as="sourcePoint" />
            <mxPoint x="350" y="680" as="targetPoint" />
            <Array as="points">
              <mxPoint x="202" y="730" />
            </Array>
          </mxGeometry>
        </mxCell>
        <mxCell id="pHhu0R0TIGrpvitj7r4t-16" value="connector" style="ellipse;whiteSpace=wrap;html=1;" parent="1" vertex="1">
          <mxGeometry x="350" y="640" width="120" height="80" as="geometry" />
        </mxCell>
        <mxCell id="pHhu0R0TIGrpvitj7r4t-17" value="" style="edgeStyle=elbowEdgeStyle;elbow=horizontal;endArrow=classic;html=1;curved=0;rounded=0;endSize=8;startSize=8;entryX=1;entryY=0.5;entryDx=0;entryDy=0;exitX=0.613;exitY=1.05;exitDx=0;exitDy=0;exitPerimeter=0;" parent="1" source="pHhu0R0TIGrpvitj7r4t-13" target="pHhu0R0TIGrpvitj7r4t-16" edge="1">
          <mxGeometry width="50" height="50" relative="1" as="geometry">
            <mxPoint x="670" y="600" as="sourcePoint" />
            <mxPoint x="620" y="640" as="targetPoint" />
            <Array as="points">
              <mxPoint x="600" y="640" />
            </Array>
          </mxGeometry>
        </mxCell>
        <mxCell id="JqkCrz44FuaUlG2t6pur-1" value="" style="endArrow=none;html=1;rounded=0;" edge="1" parent="1">
          <mxGeometry width="50" height="50" relative="1" as="geometry">
            <mxPoint x="410" y="790" as="sourcePoint" />
            <mxPoint x="410" y="720" as="targetPoint" />
          </mxGeometry>
        </mxCell>
        <mxCell id="JqkCrz44FuaUlG2t6pur-2" value="Stop" style="ellipse;whiteSpace=wrap;html=1;" vertex="1" parent="1">
          <mxGeometry x="350" y="790" width="120" height="80" as="geometry" />
        </mxCell>
      </root>
    </mxGraphModel>
  </diagram>
</mxfile>
